<svg xmlns="http://www.w3.org/2000/svg" width="1180" height="520" viewBox="0 0 1180 520" role="img" aria-label="First-Round Candidate Probability Mass by Tick"><rect width="1180" height="520" fill="#ffffff"/><text x="24.0" y="32.0" font-family="Inter, Arial, sans-serif" font-size="18" font-weight="700" text-anchor="start" fill="#111827">First-Round Candidate Probability Mass by Tick</text><line x1="64" y1="438.0" x2="1132" y2="438.0" stroke="#eef2f7"/><text x="34.0" y="442.0" font-family="Inter, Arial, sans-serif" font-size="11" font-weight="400" text-anchor="end" fill="#111827">0</text><line x1="64" y1="364.0" x2="1132" y2="364.0" stroke="#eef2f7"/><text x="34.0" y="368.0" font-family="Inter, Arial, sans-serif" font-size="11" font-weight="400" text-anchor="end" fill="#111827">20</text><line x1="64" y1="290.0" x2="1132" y2="290.0" stroke="#eef2f7"/><text x="34.0" y="294.0" font-family="Inter, Arial, sans-serif" font-size="11" font-weight="400" text-anchor="end" fill="#111827">40</text><line x1="64" y1="216.0" x2="1132" y2="216.0" stroke="#eef2f7"/><text x="34.0" y="220.0" font-family="Inter, Arial, sans-serif" font-size="11" font-weight="400" text-anchor="end" fill="#111827">60</text><line x1="64" y1="142.0" x2="1132" y2="142.0" stroke="#eef2f7"/><text x="34.0" y="146.0" font-family="Inter, Arial, sans-serif" font-size="11" font-weight="400" text-anchor="end" fill="#111827">80</text><line x1="64" y1="68.0" x2="1132" y2="68.0" stroke="#eef2f7"/><text x="34.0" y="72.0" font-family="Inter, Arial, sans-serif" font-size="11" font-weight="400" text-anchor="end" fill="#111827">100</text><polyline fill="none" stroke="#b91c1c" stroke-width="2.6" points="64.0,251.2 93.7,243.8 123.3,237.7 153.0,281.0 182.7,279.1 212.3,257.9 242.0,266.4 271.7,256.8 301.3,247.7 331.0,268.2 360.7,279.3 390.3,256.4 420.0,278.8 449.7,271.1 479.3,248.8 509.0,273.8 538.7,279.5 568.3,297.5 598.0,270.4 627.7,288.7 657.3,301.4 687.0,306.9 716.7,282.6 746.3,280.1 776.0,267.0 805.7,271.8 835.3,266.9 865.0,272.4 894.7,274.2 924.3,284.3 954.0,290.6 983.7,277.0 1013.3,288.7 1043.0,287.3 1072.7,287.3 1102.3,280.5 1132.0,270.0"/><polyline fill="none" stroke="#2563eb" stroke-width="2.6" points="64.0,353.1 93.7,345.5 123.3,345.4 153.0,316.5 182.7,310.5 212.3,311.1 242.0,302.5 271.7,313.3 301.3,314.4 331.0,310.5 360.7,307.6 390.3,312.6 420.0,295.7 449.7,307.5 479.3,315.9 509.0,296.5 538.7,303.2 568.3,279.5 598.0,303.7 627.7,295.4 657.3,277.6 687.0,273.2 716.7,293.0 746.3,257.8 776.0,256.5 805.7,260.3 835.3,255.6 865.0,256.0 894.7,256.7 924.3,256.2 954.0,251.5 983.7,264.1 1013.3,264.5 1043.0,265.0 1072.7,266.9 1102.3,257.0 1132.0,265.2"/><polyline fill="none" stroke="#7c3aed" stroke-width="2.6" points="64.0,433.5 93.7,433.8 123.3,434.5 153.0,433.9 182.7,434.7 212.3,435.7 242.0,437.0 271.7,436.1 301.3,436.1 331.0,436.3 360.7,435.0 390.3,436.0 420.0,437.1 449.7,436.3 479.3,436.7 509.0,436.3 538.7,434.9 568.3,436.6 598.0,436.0 627.7,436.7 657.3,437.0 687.0,436.4 716.7,437.2 746.3,437.4 776.0,437.7 805.7,436.3 835.3,437.5 865.0,437.0 894.7,437.1 924.3,432.9 954.0,419.4 983.7,430.5 1013.3,430.2 1043.0,430.2 1072.7,433.7 1102.3,432.2 1132.0,426.8"/><polyline fill="none" stroke="#9ca3af" stroke-width="2.6" points="64.0,416.4 93.7,424.0 123.3,429.2 153.0,411.4 182.7,405.6 212.3,419.5 242.0,415.3 271.7,420.1 301.3,424.2 331.0,406.0 360.7,401.6 390.3,415.4 420.0,407.6 449.7,405.1 479.3,418.0 509.0,412.6 538.7,399.3 568.3,397.3 598.0,402.4 627.7,393.7 657.3,392.9 687.0,391.5 716.7,391.8 746.3,413.9 776.0,421.4 805.7,415.4 835.3,422.6 865.0,417.1 894.7,416.7 924.3,409.9 954.0,420.9 983.7,411.9 1013.3,400.0 1043.0,401.8 1072.7,396.6 1102.3,413.6 1132.0,422.6"/><text x="64.0" y="462.0" font-family="Inter, Arial, sans-serif" font-size="10" font-weight="400" text-anchor="middle" fill="#111827">T001</text><text x="153.0" y="462.0" font-family="Inter, Arial, sans-serif" font-size="10" font-weight="400" text-anchor="middle" fill="#111827">T004</text><text x="242.0" y="462.0" font-family="Inter, Arial, sans-serif" font-size="10" font-weight="400" text-anchor="middle" fill="#111827">T007</text><text x="331.0" y="462.0" font-family="Inter, Arial, sans-serif" font-size="10" font-weight="400" text-anchor="middle" fill="#111827">T010</text><text x="420.0" y="462.0" font-family="Inter, Arial, sans-serif" font-size="10" font-weight="400" text-anchor="middle" fill="#111827">T013</text><text x="509.0" y="462.0" font-family="Inter, Arial, sans-serif" font-size="10" font-weight="400" text-anchor="middle" fill="#111827">T016</text><text x="598.0" y="462.0" font-family="Inter, Arial, sans-serif" font-size="10" font-weight="400" text-anchor="middle" fill="#111827">T019</text><text x="687.0" y="462.0" font-family="Inter, Arial, sans-serif" font-size="10" font-weight="400" text-anchor="middle" fill="#111827">T022</text><text x="776.0" y="462.0" font-family="Inter, Arial, sans-serif" font-size="10" font-weight="400" text-anchor="middle" fill="#111827">T025</text><text x="865.0" y="462.0" font-family="Inter, Arial, sans-serif" font-size="10" font-weight="400" text-anchor="middle" fill="#111827">T028</text><text x="954.0" y="462.0" font-family="Inter, Arial, sans-serif" font-size="10" font-weight="400" text-anchor="middle" fill="#111827">T030B</text><text x="1043.0" y="462.0" font-family="Inter, Arial, sans-serif" font-size="10" font-weight="400" text-anchor="middle" fill="#111827">T033</text><text x="1132.0" y="462.0" font-family="Inter, Arial, sans-serif" font-size="10" font-weight="400" text-anchor="middle" fill="#111827">T035B</text><line x1="64" y1="473" x2="86" y2="473" stroke="#b91c1c" stroke-width="3"/><text x="94.0" y="478.0" font-family="Inter, Arial, sans-serif" font-size="12" font-weight="400" text-anchor="start" fill="#111827">Erdogan</text><line x1="214" y1="473" x2="236" y2="473" stroke="#2563eb" stroke-width="3"/><text x="244.0" y="478.0" font-family="Inter, Arial, sans-serif" font-size="12" font-weight="400" text-anchor="start" fill="#111827">Kilicdaroglu</text><line x1="380" y1="473" x2="402" y2="473" stroke="#7c3aed" stroke-width="3"/><text x="410.0" y="478.0" font-family="Inter, Arial, sans-serif" font-size="12" font-weight="400" text-anchor="start" fill="#111827">Sinan_Ogan</text><line x1="530" y1="473" x2="552" y2="473" stroke="#9ca3af" stroke-width="3"/><text x="560.0" y="478.0" font-family="Inter, Arial, sans-serif" font-size="12" font-weight="400" text-anchor="start" fill="#111827">Undecided</text><line x1="64" y1="438" x2="1132" y2="438" stroke="#d1d5db"/></svg>