<svg xmlns="http://www.w3.org/2000/svg" width="1180" height="520" viewBox="0 0 1180 520" role="img" aria-label="Electoral Bloc Probability Mass by Tick"><rect width="1180" height="520" fill="#ffffff"/><text x="24.0" y="32.0" font-family="Inter, Arial, sans-serif" font-size="18" font-weight="700" text-anchor="start" fill="#111827">Electoral Bloc Probability Mass by Tick</text><line x1="64" y1="438.0" x2="1132" y2="438.0" stroke="#eef2f7"/><text x="34.0" y="442.0" font-family="Inter, Arial, sans-serif" font-size="11" font-weight="400" text-anchor="end" fill="#111827">0</text><line x1="64" y1="364.0" x2="1132" y2="364.0" stroke="#eef2f7"/><text x="34.0" y="368.0" font-family="Inter, Arial, sans-serif" font-size="11" font-weight="400" text-anchor="end" fill="#111827">20</text><line x1="64" y1="290.0" x2="1132" y2="290.0" stroke="#eef2f7"/><text x="34.0" y="294.0" font-family="Inter, Arial, sans-serif" font-size="11" font-weight="400" text-anchor="end" fill="#111827">40</text><line x1="64" y1="216.0" x2="1132" y2="216.0" stroke="#eef2f7"/><text x="34.0" y="220.0" font-family="Inter, Arial, sans-serif" font-size="11" font-weight="400" text-anchor="end" fill="#111827">60</text><line x1="64" y1="142.0" x2="1132" y2="142.0" stroke="#eef2f7"/><text x="34.0" y="146.0" font-family="Inter, Arial, sans-serif" font-size="11" font-weight="400" text-anchor="end" fill="#111827">80</text><line x1="64" y1="68.0" x2="1132" y2="68.0" stroke="#eef2f7"/><text x="34.0" y="72.0" font-family="Inter, Arial, sans-serif" font-size="11" font-weight="400" text-anchor="end" fill="#111827">100</text><polyline fill="none" stroke="#b91c1c" stroke-width="2.6" points="64.0,245.6 93.7,247.2 123.3,242.8 153.0,273.2 182.7,265.3 212.3,254.3 242.0,269.4 271.7,254.3 301.3,247.5 331.0,261.7 360.7,268.8 390.3,253.1 420.0,269.1 449.7,260.0 479.3,248.1 509.0,273.3 538.7,260.9 568.3,301.1 598.0,264.2 627.7,269.5 657.3,280.2 687.0,298.2 716.7,282.5 746.3,275.5 776.0,268.4 805.7,264.9 835.3,262.8 865.0,265.1 894.7,260.8 924.3,276.6 954.0,269.3 983.7,268.1 1013.3,269.8 1043.0,272.7 1072.7,279.9 1102.3,268.2 1132.0,256.6"/><polyline fill="none" stroke="#2563eb" stroke-width="2.6" points="64.0,304.7 93.7,308.9 123.3,301.3 153.0,277.5 182.7,284.6 212.3,292.6 242.0,286.3 271.7,294.9 301.3,296.1 331.0,290.1 360.7,289.7 390.3,295.6 420.0,281.8 449.7,290.9 479.3,295.1 509.0,279.2 538.7,293.1 568.3,269.4 598.0,294.4 627.7,289.1 657.3,269.6 687.0,261.0 716.7,295.3 746.3,296.5 776.0,281.5 805.7,287.9 835.3,286.0 865.0,288.6 894.7,282.3 924.3,272.4 954.0,271.2 983.7,277.1 1013.3,279.7 1043.0,273.1 1072.7,268.8 1102.3,276.4 1132.0,288.2"/><polyline fill="none" stroke="#7c3aed" stroke-width="2.6" points="64.0,401.0 93.7,401.5 123.3,402.0 153.0,398.3 182.7,401.3 212.3,403.7 242.0,400.4 271.7,403.9 301.3,404.3 331.0,402.9 360.7,403.0 390.3,404.0 420.0,404.1 449.7,403.4 479.3,404.5 509.0,403.4 538.7,404.2 568.3,396.7 598.0,402.6 627.7,403.8 657.3,407.1 687.0,401.6 716.7,385.8 746.3,385.8 776.0,406.2 805.7,404.9 835.3,406.2 865.0,406.6 894.7,410.1 924.3,412.1 954.0,411.6 983.7,413.1 1013.3,412.2 1043.0,412.5 1072.7,414.1 1102.3,415.0 1132.0,415.8"/><polyline fill="none" stroke="#6b7280" stroke-width="2.6" points="64.0,430.7 93.7,424.4 123.3,435.9 153.0,433.0 182.7,430.8 212.3,431.4 242.0,425.8 271.7,428.8 301.3,434.2 331.0,427.3 360.7,420.5 390.3,429.3 420.0,427.0 449.7,427.8 479.3,434.3 509.0,426.1 538.7,423.8 568.3,414.8 598.0,420.8 627.7,419.5 657.3,425.1 687.0,421.2 716.7,418.4 746.3,424.2 776.0,425.9 805.7,424.3 835.3,427.0 865.0,421.7 894.7,428.8 924.3,420.9 954.0,429.9 983.7,423.6 1013.3,420.3 1043.0,423.8 1072.7,419.3 1102.3,422.4 1132.0,421.5"/><text x="64.0" y="462.0" font-family="Inter, Arial, sans-serif" font-size="10" font-weight="400" text-anchor="middle" fill="#111827">T001</text><text x="153.0" y="462.0" font-family="Inter, Arial, sans-serif" font-size="10" font-weight="400" text-anchor="middle" fill="#111827">T004</text><text x="242.0" y="462.0" font-family="Inter, Arial, sans-serif" font-size="10" font-weight="400" text-anchor="middle" fill="#111827">T007</text><text x="331.0" y="462.0" font-family="Inter, Arial, sans-serif" font-size="10" font-weight="400" text-anchor="middle" fill="#111827">T010</text><text x="420.0" y="462.0" font-family="Inter, Arial, sans-serif" font-size="10" font-weight="400" text-anchor="middle" fill="#111827">T013</text><text x="509.0" y="462.0" font-family="Inter, Arial, sans-serif" font-size="10" font-weight="400" text-anchor="middle" fill="#111827">T016</text><text x="598.0" y="462.0" font-family="Inter, Arial, sans-serif" font-size="10" font-weight="400" text-anchor="middle" fill="#111827">T019</text><text x="687.0" y="462.0" font-family="Inter, Arial, sans-serif" font-size="10" font-weight="400" text-anchor="middle" fill="#111827">T022</text><text x="776.0" y="462.0" font-family="Inter, Arial, sans-serif" font-size="10" font-weight="400" text-anchor="middle" fill="#111827">T025</text><text x="865.0" y="462.0" font-family="Inter, Arial, sans-serif" font-size="10" font-weight="400" text-anchor="middle" fill="#111827">T028</text><text x="954.0" y="462.0" font-family="Inter, Arial, sans-serif" font-size="10" font-weight="400" text-anchor="middle" fill="#111827">T030B</text><text x="1043.0" y="462.0" font-family="Inter, Arial, sans-serif" font-size="10" font-weight="400" text-anchor="middle" fill="#111827">T033</text><text x="1132.0" y="462.0" font-family="Inter, Arial, sans-serif" font-size="10" font-weight="400" text-anchor="middle" fill="#111827">T035B</text><line x1="64" y1="473" x2="86" y2="473" stroke="#b91c1c" stroke-width="3"/><text x="94.0" y="478.0" font-family="Inter, Arial, sans-serif" font-size="12" font-weight="400" text-anchor="start" fill="#111827">Right/Government</text><line x1="262" y1="473" x2="284" y2="473" stroke="#2563eb" stroke-width="3"/><text x="292.0" y="478.0" font-family="Inter, Arial, sans-serif" font-size="12" font-weight="400" text-anchor="start" fill="#111827">Opposition-left/pro-democracy</text><line x1="532" y1="473" x2="554" y2="473" stroke="#7c3aed" stroke-width="3"/><text x="562.0" y="478.0" font-family="Inter, Arial, sans-serif" font-size="12" font-weight="400" text-anchor="start" fill="#111827">Opposition-nationalist/center-right</text><line x1="802" y1="473" x2="824" y2="473" stroke="#6b7280" stroke-width="3"/><text x="832.0" y="478.0" font-family="Inter, Arial, sans-serif" font-size="12" font-weight="400" text-anchor="start" fill="#111827">Other/Undecided</text><line x1="64" y1="438" x2="1132" y2="438" stroke="#d1d5db"/></svg>