<svg xmlns="http://www.w3.org/2000/svg" width="1180" height="520" viewBox="0 0 1180 520" role="img" aria-label="Average Emotion Trajectories by Tick"><rect width="1180" height="520" fill="#ffffff"/><text x="24.0" y="32.0" font-family="Inter, Arial, sans-serif" font-size="18" font-weight="700" text-anchor="start" fill="#111827">Average Emotion Trajectories by Tick</text><line x1="64" y1="438.0" x2="1132" y2="438.0" stroke="#eef2f7"/><text x="34.0" y="442.0" font-family="Inter, Arial, sans-serif" font-size="11" font-weight="400" text-anchor="end" fill="#111827">0</text><line x1="64" y1="364.0" x2="1132" y2="364.0" stroke="#eef2f7"/><text x="34.0" y="368.0" font-family="Inter, Arial, sans-serif" font-size="11" font-weight="400" text-anchor="end" fill="#111827">20</text><line x1="64" y1="290.0" x2="1132" y2="290.0" stroke="#eef2f7"/><text x="34.0" y="294.0" font-family="Inter, Arial, sans-serif" font-size="11" font-weight="400" text-anchor="end" fill="#111827">40</text><line x1="64" y1="216.0" x2="1132" y2="216.0" stroke="#eef2f7"/><text x="34.0" y="220.0" font-family="Inter, Arial, sans-serif" font-size="11" font-weight="400" text-anchor="end" fill="#111827">60</text><line x1="64" y1="142.0" x2="1132" y2="142.0" stroke="#eef2f7"/><text x="34.0" y="146.0" font-family="Inter, Arial, sans-serif" font-size="11" font-weight="400" text-anchor="end" fill="#111827">80</text><line x1="64" y1="68.0" x2="1132" y2="68.0" stroke="#eef2f7"/><text x="34.0" y="72.0" font-family="Inter, Arial, sans-serif" font-size="11" font-weight="400" text-anchor="end" fill="#111827">100</text><polyline fill="none" stroke="#dc2626" stroke-width="2.6" points="64.0,178.6 93.7,178.6 123.3,178.6 153.0,178.6 182.7,177.9 212.3,177.9 242.0,177.9 271.7,177.9 301.3,177.9 331.0,177.9 360.7,177.2 390.3,177.2 420.0,177.2 449.7,177.2 479.3,177.2 509.0,177.2 538.7,172.0 568.3,172.0 598.0,172.0 627.7,170.5 657.3,169.8 687.0,169.8 716.7,169.8 746.3,169.8 776.0,169.8 805.7,169.8 835.3,169.8 865.0,169.8 894.7,169.8 924.3,169.8 954.0,169.8 983.7,169.8 1013.3,169.8 1043.0,169.8 1072.7,169.8 1102.3,169.8 1132.0,172.7"/><polyline fill="none" stroke="#9333ea" stroke-width="2.6" points="64.0,194.5 93.7,194.5 123.3,194.5 153.0,194.5 182.7,194.5 212.3,194.5 242.0,194.5 271.7,194.5 301.3,194.5 331.0,194.5 360.7,194.2 390.3,194.2 420.0,194.2 449.7,194.2 479.3,194.2 509.0,193.8 538.7,191.6 568.3,191.6 598.0,191.9 627.7,191.9 657.3,191.9 687.0,191.9 716.7,191.6 746.3,191.9 776.0,191.9 805.7,191.9 835.3,191.9 865.0,191.9 894.7,191.9 924.3,191.9 954.0,191.9 983.7,191.9 1013.3,191.9 1043.0,191.9 1072.7,191.9 1102.3,191.9 1132.0,193.1"/><polyline fill="none" stroke="#16a34a" stroke-width="2.6" points="64.0,256.7 93.7,256.7 123.3,256.7 153.0,257.1 182.7,257.8 212.3,257.8 242.0,257.8 271.7,257.8 301.3,257.8 331.0,258.2 360.7,260.0 390.3,260.0 420.0,260.0 449.7,260.0 479.3,260.0 509.0,260.4 538.7,268.2 568.3,268.2 598.0,268.5 627.7,271.1 657.3,271.9 687.0,271.9 716.7,273.0 746.3,270.4 776.0,270.4 805.7,270.4 835.3,270.4 865.0,270.4 894.7,270.4 924.3,270.4 954.0,270.4 983.7,270.4 1013.3,268.2 1043.0,268.2 1072.7,268.2 1102.3,268.2 1132.0,270.0"/><polyline fill="none" stroke="#64748b" stroke-width="2.6" points="64.0,214.9 93.7,214.9 123.3,214.9 153.0,215.3 182.7,214.9 212.3,214.9 242.0,214.9 271.7,214.9 301.3,214.9 331.0,214.9 360.7,214.5 390.3,214.5 420.0,214.2 449.7,214.2 479.3,214.2 509.0,213.8 538.7,209.3 568.3,209.3 598.0,209.3 627.7,209.0 657.3,209.0 687.0,209.0 716.7,209.0 746.3,210.1 776.0,210.1 805.7,210.1 835.3,210.1 865.0,210.1 894.7,210.1 924.3,210.1 954.0,210.1 983.7,210.1 1013.3,210.1 1043.0,210.1 1072.7,210.1 1102.3,210.1 1132.0,210.5"/><polyline fill="none" stroke="#f59e0b" stroke-width="2.6" points="64.0,262.6 93.7,262.6 123.3,262.6 153.0,262.6 182.7,262.2 212.3,262.2 242.0,262.2 271.7,262.2 301.3,262.2 331.0,262.2 360.7,261.9 390.3,261.9 420.0,261.9 449.7,261.9 479.3,261.9 509.0,261.9 538.7,260.4 568.3,260.4 598.0,260.4 627.7,260.4 657.3,260.0 687.0,260.0 716.7,260.0 746.3,260.0 776.0,260.0 805.7,260.0 835.3,260.0 865.0,260.0 894.7,260.0 924.3,260.0 954.0,260.0 983.7,260.0 1013.3,260.0 1043.0,260.0 1072.7,260.0 1102.3,260.0 1132.0,260.0"/><text x="64.0" y="462.0" font-family="Inter, Arial, sans-serif" font-size="10" font-weight="400" text-anchor="middle" fill="#111827">T001</text><text x="153.0" y="462.0" font-family="Inter, Arial, sans-serif" font-size="10" font-weight="400" text-anchor="middle" fill="#111827">T004</text><text x="242.0" y="462.0" font-family="Inter, Arial, sans-serif" font-size="10" font-weight="400" text-anchor="middle" fill="#111827">T007</text><text x="331.0" y="462.0" font-family="Inter, Arial, sans-serif" font-size="10" font-weight="400" text-anchor="middle" fill="#111827">T010</text><text x="420.0" y="462.0" font-family="Inter, Arial, sans-serif" font-size="10" font-weight="400" text-anchor="middle" fill="#111827">T013</text><text x="509.0" y="462.0" font-family="Inter, Arial, sans-serif" font-size="10" font-weight="400" text-anchor="middle" fill="#111827">T016</text><text x="598.0" y="462.0" font-family="Inter, Arial, sans-serif" font-size="10" font-weight="400" text-anchor="middle" fill="#111827">T019</text><text x="687.0" y="462.0" font-family="Inter, Arial, sans-serif" font-size="10" font-weight="400" text-anchor="middle" fill="#111827">T022</text><text x="776.0" y="462.0" font-family="Inter, Arial, sans-serif" font-size="10" font-weight="400" text-anchor="middle" fill="#111827">T025</text><text x="865.0" y="462.0" font-family="Inter, Arial, sans-serif" font-size="10" font-weight="400" text-anchor="middle" fill="#111827">T028</text><text x="954.0" y="462.0" font-family="Inter, Arial, sans-serif" font-size="10" font-weight="400" text-anchor="middle" fill="#111827">T030B</text><text x="1043.0" y="462.0" font-family="Inter, Arial, sans-serif" font-size="10" font-weight="400" text-anchor="middle" fill="#111827">T033</text><text x="1132.0" y="462.0" font-family="Inter, Arial, sans-serif" font-size="10" font-weight="400" text-anchor="middle" fill="#111827">T035B</text><line x1="64" y1="473" x2="86" y2="473" stroke="#dc2626" stroke-width="3"/><text x="94.0" y="478.0" font-family="Inter, Arial, sans-serif" font-size="12" font-weight="400" text-anchor="start" fill="#111827">Anger</text><line x1="214" y1="473" x2="236" y2="473" stroke="#9333ea" stroke-width="3"/><text x="244.0" y="478.0" font-family="Inter, Arial, sans-serif" font-size="12" font-weight="400" text-anchor="start" fill="#111827">Fear</text><line x1="364" y1="473" x2="386" y2="473" stroke="#16a34a" stroke-width="3"/><text x="394.0" y="478.0" font-family="Inter, Arial, sans-serif" font-size="12" font-weight="400" text-anchor="start" fill="#111827">Hope</text><line x1="514" y1="473" x2="536" y2="473" stroke="#64748b" stroke-width="3"/><text x="544.0" y="478.0" font-family="Inter, Arial, sans-serif" font-size="12" font-weight="400" text-anchor="start" fill="#111827">Sadness</text><line x1="664" y1="473" x2="686" y2="473" stroke="#f59e0b" stroke-width="3"/><text x="694.0" y="478.0" font-family="Inter, Arial, sans-serif" font-size="12" font-weight="400" text-anchor="start" fill="#111827">Political fatigue</text><line x1="64" y1="438" x2="1132" y2="438" stroke="#d1d5db"/></svg>