<svg xmlns="http://www.w3.org/2000/svg" width="960" height="520" viewBox="0 0 960 520" role="img" aria-label="Runoff: Valid-Candidate Simulation vs Actual"><rect width="960" height="520" fill="#ffffff"/><text x="24.0" y="32.0" font-family="Inter, Arial, sans-serif" font-size="18" font-weight="700" text-anchor="start" fill="#111827">Runoff: Valid-Candidate Simulation vs Actual</text><line x1="70" y1="440.0" x2="910" y2="440.0" stroke="#eef2f7"/><text x="28.0" y="444.0" font-family="Inter, Arial, sans-serif" font-size="11" font-weight="400" text-anchor="end" fill="#111827">0</text><line x1="70" y1="366.0" x2="910" y2="366.0" stroke="#eef2f7"/><text x="28.0" y="370.0" font-family="Inter, Arial, sans-serif" font-size="11" font-weight="400" text-anchor="end" fill="#111827">20</text><line x1="70" y1="292.0" x2="910" y2="292.0" stroke="#eef2f7"/><text x="28.0" y="296.0" font-family="Inter, Arial, sans-serif" font-size="11" font-weight="400" text-anchor="end" fill="#111827">40</text><line x1="70" y1="218.0" x2="910" y2="218.0" stroke="#eef2f7"/><text x="28.0" y="222.0" font-family="Inter, Arial, sans-serif" font-size="11" font-weight="400" text-anchor="end" fill="#111827">60</text><line x1="70" y1="144.0" x2="910" y2="144.0" stroke="#eef2f7"/><text x="28.0" y="148.0" font-family="Inter, Arial, sans-serif" font-size="11" font-weight="400" text-anchor="end" fill="#111827">80</text><line x1="70" y1="70.0" x2="910" y2="70.0" stroke="#eef2f7"/><text x="28.0" y="74.0" font-family="Inter, Arial, sans-serif" font-size="11" font-weight="400" text-anchor="end" fill="#111827">100</text><rect x="128.8" y="269.8" width="148.2" height="170.2" rx="3" fill="#2563eb"><title>Simulation: 46.0%</title></rect><rect x="280.0" y="246.9" width="148.2" height="193.1" rx="3" fill="#111827"><title>Actual: 52.2%</title></rect><text x="280.0" y="462.0" font-family="Inter, Arial, sans-serif" font-size="11" font-weight="400" text-anchor="middle" fill="#111827">Erdogan</text><rect x="548.8" y="240.2" width="148.2" height="199.8" rx="3" fill="#2563eb"><title>Simulation: 54.0%</title></rect><rect x="700.0" y="263.1" width="148.2" height="176.9" rx="3" fill="#111827"><title>Actual: 47.8%</title></rect><text x="700.0" y="462.0" font-family="Inter, Arial, sans-serif" font-size="11" font-weight="400" text-anchor="middle" fill="#111827">Kilicdaroglu</text><rect x="70" y="468" width="12" height="12" rx="2" fill="#2563eb"/><text x="88.0" y="478.0" font-family="Inter, Arial, sans-serif" font-size="12" font-weight="400" text-anchor="start" fill="#111827">Simulation</text><rect x="220" y="468" width="12" height="12" rx="2" fill="#111827"/><text x="238.0" y="478.0" font-family="Inter, Arial, sans-serif" font-size="12" font-weight="400" text-anchor="start" fill="#111827">Actual</text><line x1="70" y1="440" x2="910" y2="440" stroke="#d1d5db"/></svg>