<svg xmlns="http://www.w3.org/2000/svg" width="1180" height="520" viewBox="0 0 1180 520" role="img" aria-label="Average Trust and Approval Trajectories by Tick"><rect width="1180" height="520" fill="#ffffff"/><text x="24.0" y="32.0" font-family="Inter, Arial, sans-serif" font-size="18" font-weight="700" text-anchor="start" fill="#111827">Average Trust and Approval Trajectories by Tick</text><line x1="64" y1="438.0" x2="1132" y2="438.0" stroke="#eef2f7"/><text x="34.0" y="442.0" font-family="Inter, Arial, sans-serif" font-size="11" font-weight="400" text-anchor="end" fill="#111827">0</text><line x1="64" y1="364.0" x2="1132" y2="364.0" stroke="#eef2f7"/><text x="34.0" y="368.0" font-family="Inter, Arial, sans-serif" font-size="11" font-weight="400" text-anchor="end" fill="#111827">20</text><line x1="64" y1="290.0" x2="1132" y2="290.0" stroke="#eef2f7"/><text x="34.0" y="294.0" font-family="Inter, Arial, sans-serif" font-size="11" font-weight="400" text-anchor="end" fill="#111827">40</text><line x1="64" y1="216.0" x2="1132" y2="216.0" stroke="#eef2f7"/><text x="34.0" y="220.0" font-family="Inter, Arial, sans-serif" font-size="11" font-weight="400" text-anchor="end" fill="#111827">60</text><line x1="64" y1="142.0" x2="1132" y2="142.0" stroke="#eef2f7"/><text x="34.0" y="146.0" font-family="Inter, Arial, sans-serif" font-size="11" font-weight="400" text-anchor="end" fill="#111827">80</text><line x1="64" y1="68.0" x2="1132" y2="68.0" stroke="#eef2f7"/><text x="34.0" y="72.0" font-family="Inter, Arial, sans-serif" font-size="11" font-weight="400" text-anchor="end" fill="#111827">100</text><polyline fill="none" stroke="#b91c1c" stroke-width="2.6" points="64.0,275.6 93.7,275.6 123.3,275.6 153.0,275.6 182.7,275.6 212.3,275.9 242.0,275.9 271.7,275.9 301.3,275.9 331.0,275.9 360.7,276.7 390.3,276.7 420.0,276.7 449.7,276.7 479.3,276.7 509.0,277.1 538.7,288.5 568.3,289.3 598.0,290.4 627.7,292.6 657.3,293.7 687.0,293.7 716.7,293.7 746.3,293.7 776.0,293.7 805.7,293.7 835.3,293.7 865.0,293.7 894.7,293.7 924.3,293.7 954.0,293.7 983.7,293.7 1013.3,293.7 1043.0,293.7 1072.7,293.7 1102.3,293.7 1132.0,293.3"/><polyline fill="none" stroke="#0f766e" stroke-width="2.6" points="64.0,277.8 93.7,277.8 123.3,278.2 153.0,278.2 182.7,280.4 212.3,280.8 242.0,280.8 271.7,280.8 301.3,280.8 331.0,281.1 360.7,281.5 390.3,281.5 420.0,281.5 449.7,281.5 479.3,281.5 509.0,281.5 538.7,291.1 568.3,291.5 598.0,292.2 627.7,294.1 657.3,295.2 687.0,295.2 716.7,295.2 746.3,295.2 776.0,295.2 805.7,295.2 835.3,295.2 865.0,295.2 894.7,295.2 924.3,295.2 954.0,295.2 983.7,295.2 1013.3,295.2 1043.0,295.2 1072.7,295.2 1102.3,295.2 1132.0,295.5"/><polyline fill="none" stroke="#2563eb" stroke-width="2.6" points="64.0,274.8 93.7,274.8 123.3,274.8 153.0,275.2 182.7,274.8 212.3,274.8 242.0,274.8 271.7,274.8 301.3,274.8 331.0,274.8 360.7,275.2 390.3,275.2 420.0,275.2 449.7,275.2 479.3,275.2 509.0,275.2 538.7,278.2 568.3,278.5 598.0,278.5 627.7,278.9 657.3,274.8 687.0,274.5 716.7,276.7 746.3,272.2 776.0,272.2 805.7,272.2 835.3,272.2 865.0,272.2 894.7,272.2 924.3,272.2 954.0,272.6 983.7,272.6 1013.3,272.6 1043.0,272.6 1072.7,272.6 1102.3,272.6 1132.0,273.0"/><text x="64.0" y="462.0" font-family="Inter, Arial, sans-serif" font-size="10" font-weight="400" text-anchor="middle" fill="#111827">T001</text><text x="153.0" y="462.0" font-family="Inter, Arial, sans-serif" font-size="10" font-weight="400" text-anchor="middle" fill="#111827">T004</text><text x="242.0" y="462.0" font-family="Inter, Arial, sans-serif" font-size="10" font-weight="400" text-anchor="middle" fill="#111827">T007</text><text x="331.0" y="462.0" font-family="Inter, Arial, sans-serif" font-size="10" font-weight="400" text-anchor="middle" fill="#111827">T010</text><text x="420.0" y="462.0" font-family="Inter, Arial, sans-serif" font-size="10" font-weight="400" text-anchor="middle" fill="#111827">T013</text><text x="509.0" y="462.0" font-family="Inter, Arial, sans-serif" font-size="10" font-weight="400" text-anchor="middle" fill="#111827">T016</text><text x="598.0" y="462.0" font-family="Inter, Arial, sans-serif" font-size="10" font-weight="400" text-anchor="middle" fill="#111827">T019</text><text x="687.0" y="462.0" font-family="Inter, Arial, sans-serif" font-size="10" font-weight="400" text-anchor="middle" fill="#111827">T022</text><text x="776.0" y="462.0" font-family="Inter, Arial, sans-serif" font-size="10" font-weight="400" text-anchor="middle" fill="#111827">T025</text><text x="865.0" y="462.0" font-family="Inter, Arial, sans-serif" font-size="10" font-weight="400" text-anchor="middle" fill="#111827">T028</text><text x="954.0" y="462.0" font-family="Inter, Arial, sans-serif" font-size="10" font-weight="400" text-anchor="middle" fill="#111827">T030B</text><text x="1043.0" y="462.0" font-family="Inter, Arial, sans-serif" font-size="10" font-weight="400" text-anchor="middle" fill="#111827">T033</text><text x="1132.0" y="462.0" font-family="Inter, Arial, sans-serif" font-size="10" font-weight="400" text-anchor="middle" fill="#111827">T035B</text><line x1="64" y1="473" x2="86" y2="473" stroke="#b91c1c" stroke-width="3"/><text x="94.0" y="478.0" font-family="Inter, Arial, sans-serif" font-size="12" font-weight="400" text-anchor="start" fill="#111827">Government approval</text><line x1="286" y1="473" x2="308" y2="473" stroke="#0f766e" stroke-width="3"/><text x="316.0" y="478.0" font-family="Inter, Arial, sans-serif" font-size="12" font-weight="400" text-anchor="start" fill="#111827">Institutional trust</text><line x1="508" y1="473" x2="530" y2="473" stroke="#2563eb" stroke-width="3"/><text x="538.0" y="478.0" font-family="Inter, Arial, sans-serif" font-size="12" font-weight="400" text-anchor="start" fill="#111827">Opposition trust</text><line x1="64" y1="438" x2="1132" y2="438" stroke="#d1d5db"/></svg>